<svg id="Layer_1" data-name="Layer 1" xmlns="http://www.w3.org/2000/svg" viewBox="0 0 308.07 122.33"><defs><style>.cls-1,.cls-3{fill:#fff;}.cls-1,.cls-2{stroke:#ce873d;}.cls-1,.cls-2,.cls-3{stroke-miterlimit:10;stroke-width:2px;}.cls-2{fill:none;}.cls-3{stroke:#3a3937;}</style></defs><title>contribute-icon-white</title><rect class="cls-1" x="87.79" y="4.65" width="132.49" height="113.04"/><rect class="cls-2" x="87.79" y="4.65" width="132.49" height="14.35"/><circle class="cls-1" cx="220.28" cy="117.68" r="3.65"/><circle class="cls-1" cx="87.79" cy="117.68" r="3.65"/><circle class="cls-1" cx="220.28" cy="4.65" r="3.65"/><circle class="cls-1" cx="87.79" cy="4.65" r="3.65"/><circle class="cls-1" cx="44.15" cy="36.2" r="3.65"/><circle class="cls-1" cx="99" cy="36.2" r="3.65"/><circle class="cls-1" cx="106" cy="11.82" r="2.63"/><circle class="cls-1" cx="116" cy="11.82" r="2.63"/><circle class="cls-1" cx="96" cy="11.82" r="2.63"/><line class="cls-1" x1="47.79" y1="36.2" x2="96.37" y2="36.2"/><circle class="cls-1" cx="176.29" cy="74.66" r="3.65"/><circle class="cls-1" cx="263.92" cy="74.66" r="3.65"/><line class="cls-1" x1="179.93" y1="74.66" x2="261.3" y2="74.66"/><rect class="cls-2" x="109.64" y="33.89" width="34.5" height="4.62" rx="2.31" ry="2.31"/><rect class="cls-3" x="1" y="33.89" width="34.5" height="4.62" rx="2.31" ry="2.31"/><rect class="cls-3" x="272.57" y="72.35" width="34.5" height="4.62" rx="2.31" ry="2.31"/><rect class="cls-3" x="109.64" y="43.5" width="14.5" height="4.62" rx="2.31" ry="2.31"/><rect class="cls-3" x="114.64" y="53.12" width="34.5" height="4.62" rx="2.31" ry="2.31"/><rect class="cls-3" x="114.64" y="82.18" width="34.5" height="4.62" rx="2.31" ry="2.31"/><rect class="cls-3" x="114.64" y="91.79" width="18.5" height="4.62" rx="2.31" ry="2.31"/><rect class="cls-3" x="119.64" y="101.41" width="39.5" height="4.62" rx="2.31" ry="2.31"/><rect class="cls-3" x="119.64" y="62.74" width="21.5" height="4.62" rx="2.31" ry="2.31"/><rect class="cls-2" x="119.64" y="72.35" width="48" height="4.62" rx="2.31" ry="2.31"/><rect class="cls-3" x="146.14" y="62.74" width="21.5" height="4.62" rx="2.31" ry="2.31"/><rect class="cls-3" x="129.14" y="43.5" width="54.5" height="4.62" rx="2.31" ry="2.31"/></svg>