<svg id="Layer_1" xmlns="http://www.w3.org/2000/svg" viewBox="0 0 480.2 122.7"><style>.st0{fill:#fff}</style><path class="st0" d="M92.5 50.9H52.1c-1 0-1.9.8-1.9 1.9v19.7c0 1 .8 1.9 1.9 1.9h15.7v24.5s-3.5 1.2-13.3 1.2c-11.5 0-27.6-4.2-27.6-39.6s16.8-40.1 32.5-40.1c13.6 0 19.5 2.4 23.2 3.6 1.2.4 2.3-.8 2.3-1.9L89.4 3c0-.5-.2-1.1-.7-1.5C87.2.4 77.9-4.8 54.5-4.8 27.6-4.7 0 6.7 0 61.8s31.6 63.3 58.3 63.3c22.1 0 35.5-9.4 35.5-9.4.6-.3.6-1.1.6-1.4V52.7c0-1-.9-1.8-1.9-1.8zm208-49c0-1-.8-1.9-1.9-1.9h-22.7c-1 0-1.9.8-1.9 1.9v43.9h-35.4V1.9c0-1-.8-1.9-1.9-1.9H214c-1 0-1.9.8-1.9 1.9v118.9c0 1 .8 1.9 1.9 1.9h22.7c1 0 1.9-.9 1.9-1.9V69.9H274l-.1 50.9c0 1 .8 1.9 1.9 1.9h22.8c1 0 1.9-.9 1.9-1.9V1.9zM135.4 17.5c0-8.2-6.6-14.8-14.7-14.8s-14.6 6.6-14.6 14.8 6.6 14.8 14.6 14.8c8.1 0 14.7-6.7 14.7-14.8zm-1.7 78.2V40.8c0-1-.8-1.9-1.9-1.9h-22.7c-1 0-2 1.1-2 2.1v78.6c0 2.3 1.4 3 3.3 3h20.4c2.2 0 2.8-1.1 2.8-3 .1-4.2.1-20.7.1-23.9zm253.1-56.6h-22.5c-1 0-1.9.9-1.9 1.9v58.3s-5.7 4.2-13.9 4.2c-8.1 0-10.3-3.7-10.3-11.7V41c0-1-.8-1.9-1.9-1.9h-22.9c-1 0-1.9.9-1.9 1.9v54.7c0 23.6 13.2 29.4 31.3 29.4 14.9 0 26.9-8.2 26.9-8.2s.6 4.3.8 4.8c.3.5.9 1 1.7 1l14.6-.1c1 0 1.9-.9 1.9-1.9V40.9c0-1-.9-1.8-1.9-1.8zm61.6-2.7c-12.8 0-21.5 5.7-21.5 5.7V1.9c0-1-.8-1.9-1.9-1.9h-22.8c-1 0-1.9.8-1.9 1.9v118.9c0 1 .8 1.9 1.9 1.9H418c.7 0 1.3-.4 1.6-1 .4-.6 1-5.5 1-5.5s9.3 8.8 27 8.8c20.7 0 32.6-10.5 32.6-47.2 0-36.6-18.9-41.4-31.8-41.4zm-8.9 67c-7.8-.2-13.1-3.8-13.1-3.8V62s5.2-3.2 11.7-3.8c8.1-.7 15.9 1.7 15.9 21.1 0 20.4-3.5 24.4-14.5 24.1zM199 38.9h-17V16.4c0-.9-.4-1.3-1.4-1.3h-23.2c-.9 0-1.4.4-1.4 1.3v23.3s-11.6 2.8-12.4 3c-.8.2-1.4 1-1.4 1.8v14.6c0 1.1.8 1.9 1.9 1.9H156v35.2c0 26.1 18.3 28.7 30.7 28.7 5.7 0 12.4-1.8 13.5-2.2.7-.2 1.1-.9 1.1-1.7v-16.1c0-1-.9-1.9-1.9-1.9s-3.5.4-6.2.4c-8.4 0-11.2-3.9-11.2-8.9V61.1h17c1 0 1.9-.8 1.9-1.9V40.8c0-1.1-.8-1.9-1.9-1.9z"/></svg>