<svg id="Layer_1" xmlns="http://www.w3.org/2000/svg" viewBox="0 0 242.1 122.3"><style>.st0,.st1,.st2{fill:#fff;stroke:#ce873d;stroke-width:2;stroke-miterlimit:10}.st1,.st2{fill:none;stroke:#3a3937}.st2{fill:#fff}</style><title>submit-icon-white</title><path class="st0" d="M54.8 4.7h132.5v113H54.8z"/><path class="st0" d="M54.8 4.7h132.5v14.4H54.8z"/><circle class="st0" cx="187.3" cy="117.7" r="3.6"/><circle class="st0" cx="54.8" cy="117.7" r="3.7"/><circle class="st0" cx="187.3" cy="4.7" r="3.6"/><circle class="st0" cx="54.8" cy="4.7" r="3.7"/><circle class="st0" cx="73.4" cy="11.8" r="2.6"/><circle class="st0" cx="83.4" cy="11.8" r="2.6"/><circle class="st0" cx="63.4" cy="11.8" r="2.6"/><path class="st1" d="M0 4.6h42.5v113.1H0M42.5 19H0"/><circle class="st2" cx="42.5" cy="117.7" r="3.7"/><circle class="st2" cx="42.5" cy="4.7" r="3.7"/><path class="st1" d="M242.1 4.6h-42.5v113.1h42.5M199.6 19h42.5"/><circle class="st2" cx="199.6" cy="117.7" r="3.6"/><circle class="st2" cx="199.6" cy="4.7" r="3.6"/><path class="st1" d="M112.4 68.3h17.2M121 76.9V59.8"/><circle class="st1" cx="121" cy="68.3" r="16.5"/><circle class="st2" cx="218.2" cy="11.8" r="2.6"/><circle class="st2" cx="228.2" cy="11.8" r="2.6"/><circle class="st2" cx="208.2" cy="11.8" r="2.6"/></svg>